<svg width="24" height="24" viewBox="0 0 24 24" fill="none" xmlns="http://www.w3.org/2000/svg">
<path d="M12 22C10.6864 22.0013 9.38546 21.7436 8.17161 21.2415C6.95776 20.7394 5.85484 20.0028 4.926 19.074C3.99715 18.1451 3.2606 17.0422 2.75852 15.8284C2.25644 14.6145 1.99868 13.3136 2 12V11.8C2.04001 9.83941 2.65529 7.9338 3.76938 6.32002C4.88348 4.70623 6.44725 3.45543 8.26636 2.72306C10.0855 1.99068 12.0797 1.80904 14.0012 2.2007C15.9226 2.59236 17.6867 3.54005 19.074 4.926C20.4737 6.32454 21.4271 8.1069 21.8134 10.0475C22.1997 11.9881 22.0017 13.9996 21.2443 15.8276C20.487 17.6556 19.2043 19.2178 17.5588 20.3166C15.9132 21.4153 13.9787 22.0012 12 22V22ZM12 13.41L14.59 16L16 14.59L13.41 12L16 9.41L14.59 8L12 10.59L9.41 8L8 9.41L10.59 12L8 14.59L9.41 16L12 13.411V13.41Z" fill="black"/>
</svg>
