<svg width="24" height="24" fill="none" xmlns="http://www.w3.org/2000/svg"><path d="M3.859 5.279c-.599.089-.896.509-.849 1.2.036.525.259.841.686.971.24.073 16.368.073 16.608 0 .42-.128.647-.443.685-.952.043-.565-.138-.942-.542-1.131l-.227-.107-8.08-.005c-4.444-.003-8.17.008-8.281.024m0 6c-.599.089-.896.509-.849 1.2.036.525.259.841.686.971.24.073 16.368.073 16.608 0 .42-.128.647-.443.685-.952.043-.565-.138-.942-.542-1.131l-.227-.107-8.08-.005c-4.444-.003-8.17.008-8.281.024m0 6c-.599.089-.896.509-.849 1.2.036.525.259.841.686.971.24.073 16.368.073 16.608 0 .42-.128.647-.443.685-.952.043-.565-.138-.942-.542-1.131l-.227-.107-8.08-.005c-4.444-.003-8.17.008-8.281.024" fill-rule="evenodd" fill="#000"/></svg>