<svg width="24" height="24" fill="none" xmlns="http://www.w3.org/2000/svg"><path d="M10.44 3.043c-3.42.327-6.335 2.824-7.178 6.149a8.352 8.352 0 0 0-.084 3.749A8.26 8.26 0 0 0 13.4 19.215a8.715 8.715 0 0 0 2.49-1.144l.356-.244 2.287 2.285c1.745 1.743 2.33 2.303 2.467 2.365.388.175.777.069 1.162-.315.384-.385.49-.774.315-1.162-.062-.137-.622-.722-2.365-2.467l-2.285-2.287.244-.356a8.583 8.583 0 0 0 1.307-3.21c.143-.787.152-1.957.021-2.742a8.276 8.276 0 0 0-8.959-6.895m1.66 2.281c2.581.331 4.714 2.463 5.078 5.077a6 6 0 0 1-1.129 4.439c-.296.397-.914 1.005-1.312 1.288a5.955 5.955 0 0 1-3.475 1.112c-2.578 0-4.857-1.622-5.675-4.04a5.537 5.537 0 0 1-.304-1.506 5.852 5.852 0 0 1 .651-3.196 5.636 5.636 0 0 1 1.087-1.477c1.356-1.357 3.123-1.947 5.079-1.697" fill-rule="evenodd" fill="#000"/></svg>